<?xml version="1.0" encoding="UTF-8" standalone="no"?>
<svg
   width="439"
   height="61"
   viewBox="0 0 439 61"
   fill="none"
   version="1.1"
   id="svg844"
   sodipodi:docname="just-cloud.svg"
   inkscape:version="1.1.1 (3bf5ae0d25, 2021-09-20)"
   xmlns:inkscape="http://www.inkscape.org/namespaces/inkscape"
   xmlns:sodipodi="http://sodipodi.sourceforge.net/DTD/sodipodi-0.dtd"
   xmlns="http://www.w3.org/2000/svg"
   xmlns:svg="http://www.w3.org/2000/svg">
  <defs
     id="defs848" />
  <sodipodi:namedview
     id="namedview846"
     pagecolor="#ffffff"
     bordercolor="#666666"
     borderopacity="1.0"
     inkscape:pageshadow="2"
     inkscape:pageopacity="0.0"
     inkscape:pagecheckerboard="0"
     showgrid="false"
     inkscape:zoom="4.2297549"
     inkscape:cx="17.613314"
     inkscape:cy="38.181881"
     inkscape:window-width="1920"
     inkscape:window-height="1017"
     inkscape:window-x="1912"
     inkscape:window-y="-8"
     inkscape:window-maximized="1"
     inkscape:current-layer="svg844" />
  <path
     d="m 94.5351,27.6344 c -3.56,-5.95 -9.62,-9.39 -17.24,-9.86 -1.2166,-3.6666 -3.7693,-6.7406 -7.15,-8.61003 -3.6722,-1.97996 -7.95,-2.52182 -12,-1.52 C 54.5755,3.7385 49.7826,1.16399 44.5551,0.344366 38.8393,-0.536245 32.9907,0.280888 27.7351,2.69437 c -10.2,4.62 -15.92,13.61003 -15.18,23.45003 -3.7918,1.0544 -7.10557,3.381 -9.38523,6.5893 -2.279662,3.2083 -3.386481,7.103 -3.1347334,11.0307 0.4400004,7.87 6.0000034,16.15 15.6899634,16.74 l 46.59,-0.01 c 5.666401,-1.629437 3.965808,-6.279803 0.18,-6.28 l -46.46,0.02 c -6,-0.41 -9.41996,-5.72 -9.67996,-10.79 -0.32,-4.85 2.28,-10.46 10.21996,-11.81 0.4167,-0.0694 0.815,-0.2221 1.1713,-0.449 0.3562,-0.2269 0.663,-0.5233 0.902,-0.8716 0.239,-0.3482 0.4053,-0.7411 0.489,-1.1551 0.0836,-0.414 0.0828,-0.8406 -0.0023,-1.2543 -2,-9.72 4.45,-16.44 11.19,-19.49003 7.71,-3.43 18.19,-3.37 24.3,4.74003 0.417,0.5466 1.0024,0.9407 1.6657,1.1214 0.6633,0.1808 1.3677,0.1381 2.0043,-0.1214 1.4208,-0.5569 2.9448,-0.8014 4.4684,-0.7169 1.5237,0.0846 3.0112,0.4962 4.3616,1.2069 1.2426,0.7021 2.3084,1.6788 3.116,2.8556 0.8076,1.1767 1.3357,2.5224 1.544,3.9344 0.1414,0.7294 0.5361,1.3855 1.1143,1.8521 0.5783,0.4666 1.3029,0.7138 2.0457,0.6979 8.24,-0.19 12.27,3.62 14.2,6.84 1.3873,2.4815 2.1157,5.277 2.1157,8.12 0,2.8429 -0.7284,5.6385 -2.1157,8.12 -2.62,4.61 -7.18,7.15 -12.84,7.15 h -13.81 c -0.7999,-0.0177 -1.5786,0.2585 -2.1886,0.7763 -0.61,0.5179 -1.009,1.2414 -1.1214,2.0337 -0.0447,0.438 0.0029,0.8806 0.1398,1.2991 0.1369,0.4186 0.36,0.8037 0.6549,1.1307 0.2949,0.327 0.6552,0.5885 1.0574,0.7677 0.4023,0.1791 0.8376,0.2719 1.2779,0.2725 h 14 c 3.7004,0.0995 7.3581,-0.8092 10.5817,-2.6289 3.2235,-1.8196 5.8915,-4.4816 7.7183,-7.7011 1.9411,-3.4401 2.9544,-7.3257 2.9404,-11.2756 -0.0141,-3.9499 -1.0549,-7.8283 -3.0204,-11.2544 z"
     fill="#000000"
     id="path842"
     sodipodi:nodetypes="cccccccsccccccccccccccccccccccscsccccsccccccc" />
</svg>
