<?xml version="1.0" encoding="UTF-8" standalone="no" ?>
<!DOCTYPE svg PUBLIC "-//W3C//DTD SVG 1.1//EN" "http://www.w3.org/Graphics/SVG/1.1/DTD/svg11.dtd">
<svg xmlns="http://www.w3.org/2000/svg" xmlns:xlink="http://www.w3.org/1999/xlink" version="1.1" width="257" height="458" viewBox="0 0 257 458" xml:space="preserve">
<desc>Created with Fabric.js 4.6.0</desc>
<defs>
</defs>
<g transform="matrix(0.13 0 0 -0.13 128.55 36.25)" id="anl0ErGgK12AK1tBCOUY4"  >
<path style="stroke: none; stroke-width: 1; stroke-dasharray: none; stroke-linecap: butt; stroke-dashoffset: 0; stroke-linejoin: miter; stroke-miterlimit: 4; fill: rgb(0,0,0); fill-rule: nonzero; opacity: 1;" vector-effect="non-scaling-stroke"  transform=" translate(-1615, -4945)" d="M 630 4945 L 630 4670 L 1615 4670 L 2600 4670 L 2600 4945 L 2600 5220 L 1615 5220 L 630 5220 L 630 4945 z" stroke-linecap="round" />
</g>
<g transform="matrix(0.13 0 0 -0.13 128.55 318.25)" id="nHBdUsNNzCMWu6TWiRoA9"  >
<path style="stroke: none; stroke-width: 1; stroke-dasharray: none; stroke-linecap: butt; stroke-dashoffset: 0; stroke-linejoin: miter; stroke-miterlimit: 4; fill: rgb(0,0,0); fill-rule: nonzero; opacity: 1;" vector-effect="non-scaling-stroke"  transform=" translate(-1615, -2830)" d="M 630 2830 L 630 1760 L 920 1760 L 1210 1760 L 1210 2550 L 1210 3340 L 1905 3340 L 2600 3340 L 2600 3620 L 2600 3900 L 1615 3900 L 630 3900 L 630 2830 z" stroke-linecap="round" />
</g>
</svg>