<?xml version="1.0" standalone="no"?>
<!DOCTYPE svg PUBLIC "-//W3C//DTD SVG 20010904//EN"
 "http://www.w3.org/TR/2001/REC-SVG-20010904/DTD/svg10.dtd">
<svg version="1.0" xmlns="http://www.w3.org/2000/svg"
 width="364.000000pt" height="545.000000pt" viewBox="0 0 364.000000 545.000000"
 preserveAspectRatio="xMidYMid meet">

<g transform="translate(0.000000,545.000000) scale(0.100000,-0.100000)"
fill="#000000" stroke="none">
<path d="M630 4945 l0 -275 985 0 985 0 0 275 0 275 -985 0 -985 0 0 -275z"/>
<path d="M630 2830 l0 -1070 290 0 290 0 0 790 0 790 695 0 695 0 0 280 0 280
-985 0 -985 0 0 -1070z"/>
<path d="M1312 1131 c-110 -28 -168 -130 -128 -224 24 -56 46 -71 212 -141 49
-21 68 -54 54 -91 -22 -57 -113 -56 -167 1 l-32 35 -51 -26 c-33 -17 -48 -30
-44 -38 46 -81 123 -127 215 -127 133 0 219 69 219 175 0 89 -52 142 -185 190
-78 29 -88 36 -99 72 -9 30 25 63 64 63 34 0 79 -20 99 -44 11 -13 18 -11 57
12 24 15 44 32 44 37 0 16 -60 70 -98 89 -40 20 -115 28 -160 17z"/>
<path d="M1924 1130 c-139 -28 -236 -132 -251 -269 -20 -198 142 -358 341
-337 164 17 278 139 279 301 1 124 -59 223 -166 274 -68 32 -140 43 -203 31z
m135 -135 c117 -60 127 -249 18 -322 -128 -85 -285 26 -263 185 8 59 33 99 81
128 47 28 120 32 164 9z"/>
<path d="M220 830 l0 -300 70 0 69 0 3 123 3 122 98 3 97 3 0 49 0 49 -97 3
-98 3 0 60 0 60 123 3 123 3 -3 57 -3 57 -192 3 -193 2 0 -300z"/>
<path d="M680 1070 l0 -60 70 0 70 0 0 -240 0 -240 70 0 70 0 0 240 0 240 75
0 76 0 -3 58 -3 57 -212 3 -213 2 0 -60z"/>
<path d="M2740 875 l0 -55 -55 0 -55 0 0 -50 0 -50 55 0 55 0 0 -55 0 -55 55
0 55 0 0 55 0 55 55 0 55 0 0 50 0 50 -55 0 -55 0 0 55 0 55 -55 0 -55 0 0
-55z"/>
</g>
</svg>
