<?xml version="1.0" encoding="UTF-8" standalone="no" ?>
<!DOCTYPE svg PUBLIC "-//W3C//DTD SVG 1.1//EN" "http://www.w3.org/Graphics/SVG/1.1/DTD/svg11.dtd">
<svg xmlns="http://www.w3.org/2000/svg" xmlns:xlink="http://www.w3.org/1999/xlink" version="1.1" width="292" height="500" viewBox="0 0 292 500" xml:space="preserve">
<desc>Created with Fabric.js 4.6.0</desc>
<defs>
</defs>
<g transform="matrix(0.1 0 0 -0.1 148.62 30.77)" id="TlDBPTyD19tskIMowJAec"  >
<path style="stroke: none; stroke-width: 1; stroke-dasharray: none; stroke-linecap: butt; stroke-dashoffset: 0; stroke-linejoin: miter; stroke-miterlimit: 4; fill: rgb(107,197,210); fill-rule: nonzero; opacity: 1;" vector-effect="non-scaling-stroke"  transform=" translate(-1615, -4945)" d="M 630 4945 L 630 4670 L 1615 4670 L 2600 4670 L 2600 4945 L 2600 5220 L 1615 5220 L 630 5220 L 630 4945 z" stroke-linecap="round" />
</g>
<g transform="matrix(0.1 0 0 -0.1 148.62 253.76)" id="O0EZF6x2XbEk0J8dQEoPF"  >
<path style="stroke: none; stroke-width: 1; stroke-dasharray: none; stroke-linecap: butt; stroke-dashoffset: 0; stroke-linejoin: miter; stroke-miterlimit: 4; fill: rgb(107,197,210); fill-rule: nonzero; opacity: 1;" vector-effect="non-scaling-stroke"  transform=" translate(-1615, -2830)" d="M 630 2830 L 630 1760 L 920 1760 L 1210 1760 L 1210 2550 L 1210 3340 L 1905 3340 L 2600 3340 L 2600 3620 L 2600 3900 L 1615 3900 L 630 3900 L 630 2830 z" stroke-linecap="round" />
</g>
<g transform="matrix(0.1 0 0 -0.1 123 464.84)" id="d_SljtEosT84GxrvFos4R"  >
<path style="stroke: none; stroke-width: 1; stroke-dasharray: none; stroke-linecap: butt; stroke-dashoffset: 0; stroke-linejoin: miter; stroke-miterlimit: 4; fill: rgb(255,255,255); fill-rule: nonzero; opacity: 1;" vector-effect="non-scaling-stroke"  transform=" translate(-1372.68, -827.98)" d="M 1312 1131 C 1202 1103 1144 1001 1184 907 C 1208 851 1230 836 1396 766 C 1445 745 1464 712 1450 675 C 1428 618 1337 619 1283 676 L 1251 711 L 1200 685 C 1167 668 1152 655 1156 647 C 1202 566 1279 520 1371 520 C 1504 520 1590 589 1590 695 C 1590 784 1538 837 1405 885 C 1327 914 1317 921 1306 957 C 1297 987 1331 1020 1370 1020 C 1404 1020 1449 1000 1469 976 C 1480 963 1487 965 1526 988 C 1550 1003 1570 1020 1570 1025 C 1570 1041 1510 1095 1472 1114 C 1432 1134 1357 1142 1312 1131 z" stroke-linecap="round" />
</g>
<g transform="matrix(0.1 0 0 -0.1 187.43 464.79)" id="GqiHa0MQVB6DxyDfHgJBX"  >
<path style="stroke: none; stroke-width: 1; stroke-dasharray: none; stroke-linecap: butt; stroke-dashoffset: 0; stroke-linejoin: miter; stroke-miterlimit: 4; fill: rgb(255,255,255); fill-rule: nonzero; opacity: 1;" vector-effect="non-scaling-stroke"  transform=" translate(-1982.17, -828.44)" d="M 1924 1130 C 1785 1102 1688 998 1673 861 C 1653 663 1815 503 2014 524 C 2178 541 2292 663 2293 825 C 2294 949 2234 1048 2127 1099 C 2059 1131 1987 1142 1924 1130 z M 2059 995 C 2176 935 2186 746 2077 673 C 1949 588 1792 699 1814 858 C 1822 917 1847 957 1895 986 C 1942 1014 2015 1018 2059 995 z" stroke-linecap="round" />
</g>
<g transform="matrix(0.1 0 0 -0.1 21.8 464.63)" id="lEFfOuVqTJziCddYfiGHb"  >
<path style="stroke: none; stroke-width: 1; stroke-dasharray: none; stroke-linecap: butt; stroke-dashoffset: 0; stroke-linejoin: miter; stroke-miterlimit: 4; fill: rgb(255,255,255); fill-rule: nonzero; opacity: 1;" vector-effect="non-scaling-stroke"  transform=" translate(-415.5, -830)" d="M 220 830 L 220 530 L 290 530 L 359 530 L 362 653 L 365 775 L 463 778 L 560 781 L 560 830 L 560 879 L 463 882 L 365 885 L 365 945 L 365 1005 L 488 1008 L 611 1011 L 608 1068 L 605 1125 L 413 1128 L 220 1130 L 220 830 z" stroke-linecap="round" />
</g>
<g transform="matrix(0.1 0 0 -0.1 72.54 464.63)" id="LHOs4W5ukZsyv9eL8yiv4"  >
<path style="stroke: none; stroke-width: 1; stroke-dasharray: none; stroke-linecap: butt; stroke-dashoffset: 0; stroke-linejoin: miter; stroke-miterlimit: 4; fill: rgb(255,255,255); fill-rule: nonzero; opacity: 1;" vector-effect="non-scaling-stroke"  transform=" translate(-895.5, -830)" d="M 680 1070 L 680 1010 L 750 1010 L 820 1010 L 820 770 L 820 530 L 890 530 L 960 530 L 960 770 L 960 1010 L 1035 1010 L 1111 1010 L 1108 1068 L 1105 1125 L 893 1128 L 680 1130 L 680 1070 z" stroke-linecap="round" />
</g>
<g transform="matrix(0.1 0 0 -0.1 273.37 470.95)" id="cZ4HComTiYpHRJe3rRgW3"  >
<path style="stroke: none; stroke-width: 1; stroke-dasharray: none; stroke-linecap: butt; stroke-dashoffset: 0; stroke-linejoin: miter; stroke-miterlimit: 4; fill: rgb(255,255,255); fill-rule: nonzero; opacity: 1;" vector-effect="non-scaling-stroke"  transform=" translate(-2795, -770)" d="M 2740 875 L 2740 820 L 2685 820 L 2630 820 L 2630 770 L 2630 720 L 2685 720 L 2740 720 L 2740 665 L 2740 610 L 2795 610 L 2850 610 L 2850 665 L 2850 720 L 2905 720 L 2960 720 L 2960 770 L 2960 820 L 2905 820 L 2850 820 L 2850 875 L 2850 930 L 2795 930 L 2740 930 L 2740 875 z" stroke-linecap="round" />
</g>
</svg>